<svg xmlns="http://www.w3.org/2000/svg" width="275" height="130" viewBox="0 0 275 130"><g fill="#373737"><path d="M65.135 77.018L77.72 89.611l13.087-13.097-12.584-12.593zm13.088-13.097l12.584-12.593L77.72 38.231 65.135 50.824zM65.135 25.638L39.657.142a70.024 70.024 0 0 0-16.172 9.004L52.55 38.231l12.585-12.593zm0 25.186L52.551 38.231 39.463 51.328l12.584 12.593z"/><path d="M52.047 63.921L39.463 76.514l13.088 13.097 12.584-12.593zm13.088 38.283L92.912 130a70.067 70.067 0 0 0 15.788-9.387L77.72 89.611l-12.585 12.593zm38.257-38.283l26.362-26.38a70.1 70.1 0 0 0-9.446-15.734L90.807 51.328l12.585 12.593zM90.807 76.514l30.827 30.848a70.09 70.09 0 0 0 8.997-16.183l-27.24-27.259-12.584 12.594zM65.135 25.638L77.72 38.231l29.275-29.295A70.009 70.009 0 0 0 90.755 0l-25.62 25.638zM26.879 63.921L0 90.818a70.051 70.051 0 0 0 8.93 16.25l30.533-30.554-12.584-12.593z"/><path d="M52.551 89.611l-30.759 30.78a70.073 70.073 0 0 0 15.723 9.452l27.62-27.639-12.584-12.593zM39.463 51.328L10.244 22.089A70.155 70.155 0 0 0 .863 37.888l26.015 26.033 12.585-12.593z"/><text transform="matrix(.9993 0 0 1 125.456 89.61)" font-family="'RobotoSlab-Thin'" font-size="72.536">G</text><text transform="matrix(.9993 0 0 1 172.103 90.662)" font-family="'RobotoSlab-Thin'" font-size="68.66">ri</text><text transform="matrix(.9993 0 0 1 214.385 90.712)" font-family="'RobotoSlab-Thin'" font-size="69.555">dl</text></g></svg>